<svg id="visual" viewBox="0 0 1920 100" width="1920" height="100" xmlns="http://www.w3.org/2000/svg" xmlns:xlink="http://www.w3.org/1999/xlink" version="1.1"><rect x="0" y="0" width="1920" height="100" fill="#ebebeb"></rect><path d="M0 21L45.7 22C91.3 23 182.7 25 274.2 24.8C365.7 24.7 457.3 22.3 548.8 21.7C640.3 21 731.7 22 823 24.7C914.3 27.3 1005.7 31.7 1097 32.8C1188.3 34 1279.7 32 1371.2 31.5C1462.7 31 1554.3 32 1645.8 32.7C1737.3 33.3 1828.7 33.7 1874.3 33.8L1920 34L1920 101L1874.3 101C1828.7 101 1737.3 101 1645.8 101C1554.3 101 1462.7 101 1371.2 101C1279.7 101 1188.3 101 1097 101C1005.7 101 914.3 101 823 101C731.7 101 640.3 101 548.8 101C457.3 101 365.7 101 274.2 101C182.7 101 91.3 101 45.7 101L0 101Z" fill="#ebebeb"></path><path d="M0 48L45.7 45.5C91.3 43 182.7 38 274.2 37.8C365.7 37.7 457.3 42.3 548.8 44.2C640.3 46 731.7 45 823 45.3C914.3 45.7 1005.7 47.3 1097 49.5C1188.3 51.7 1279.7 54.3 1371.2 54C1462.7 53.7 1554.3 50.3 1645.8 49.2C1737.3 48 1828.7 49 1874.3 49.5L1920 50L1920 101L1874.3 101C1828.7 101 1737.3 101 1645.8 101C1554.3 101 1462.7 101 1371.2 101C1279.7 101 1188.3 101 1097 101C1005.7 101 914.3 101 823 101C731.7 101 640.3 101 548.8 101C457.3 101 365.7 101 274.2 101C182.7 101 91.3 101 45.7 101L0 101Z" fill="#e9e6e5"></path><path d="M0 49L45.7 50.3C91.3 51.7 182.7 54.3 274.2 54.8C365.7 55.3 457.3 53.7 548.8 53C640.3 52.3 731.7 52.7 823 53.8C914.3 55 1005.7 57 1097 56.7C1188.3 56.3 1279.7 53.7 1371.2 53.3C1462.7 53 1554.3 55 1645.8 54.7C1737.3 54.3 1828.7 51.7 1874.3 50.3L1920 49L1920 101L1874.3 101C1828.7 101 1737.3 101 1645.8 101C1554.3 101 1462.7 101 1371.2 101C1279.7 101 1188.3 101 1097 101C1005.7 101 914.3 101 823 101C731.7 101 640.3 101 548.8 101C457.3 101 365.7 101 274.2 101C182.7 101 91.3 101 45.7 101L0 101Z" fill="#e6e1df"></path><path d="M0 69L45.7 67.5C91.3 66 182.7 63 274.2 62.8C365.7 62.7 457.3 65.3 548.8 65.5C640.3 65.7 731.7 63.3 823 64.3C914.3 65.3 1005.7 69.7 1097 70C1188.3 70.3 1279.7 66.7 1371.2 67.5C1462.7 68.3 1554.3 73.7 1645.8 76.5C1737.3 79.3 1828.7 79.7 1874.3 79.8L1920 80L1920 101L1874.3 101C1828.7 101 1737.3 101 1645.8 101C1554.3 101 1462.7 101 1371.2 101C1279.7 101 1188.3 101 1097 101C1005.7 101 914.3 101 823 101C731.7 101 640.3 101 548.8 101C457.3 101 365.7 101 274.2 101C182.7 101 91.3 101 45.7 101L0 101Z" fill="#e3dcda"></path><path d="M0 78L45.7 77.5C91.3 77 182.7 76 274.2 76.5C365.7 77 457.3 79 548.8 80C640.3 81 731.7 81 823 81.7C914.3 82.3 1005.7 83.7 1097 84C1188.3 84.3 1279.7 83.7 1371.2 83C1462.7 82.3 1554.3 81.7 1645.8 80.3C1737.3 79 1828.7 77 1874.3 76L1920 75L1920 101L1874.3 101C1828.7 101 1737.3 101 1645.8 101C1554.3 101 1462.7 101 1371.2 101C1279.7 101 1188.3 101 1097 101C1005.7 101 914.3 101 823 101C731.7 101 640.3 101 548.8 101C457.3 101 365.7 101 274.2 101C182.7 101 91.3 101 45.7 101L0 101Z" fill="#e0d8d4"></path></svg>